<svg xmlns="http://www.w3.org/2000/svg" viewBox="0 0 28.92 517.16"><defs><style>.cls-1{fill:#08f4ed;}</style></defs><title>timeline2</title><g id="Layer_2" data-name="Layer 2"><g id="Layer_1-2" data-name="Layer 1"><circle id="a" class="cls-1" cx="6" cy="6" r="6"/><path id="b" class="cls-1" d="M28.92,31.37h0V9.83a5.91,5.91,0,0,0-4-5.63,6,6,0,0,0-8,5.58s0,21.79,0,21.82h0a6,6,0,0,0,12,0h0Z"/><circle id="c" class="cls-1" cx="6" cy="50.97" r="6"/><circle id="d" class="cls-1" cx="6" cy="72.87" r="6"/><path id="e" class="cls-1" d="M12,110.94h0V89.41a5.91,5.91,0,0,0-4-5.63,6,6,0,0,0-8,5.58s0,21.79,0,21.82H0a6,6,0,0,0,12,0h0Z"/><path id="f" class="cls-1" d="M28.92,155.41h0V97.62A5.91,5.91,0,0,0,25,92a6,6,0,0,0-8,5.58s0,58,0,58.08h0a6,6,0,0,0,12,0h0Z"/><circle id="g" class="cls-1" cx="6" cy="173.36" r="6"/><circle id="h" class="cls-1" cx="6" cy="195.26" r="6"/><circle id="i" class="cls-1" cx="6" cy="216.89" r="6"/><circle id="j" class="cls-1" cx="6" cy="238.79" r="6"/><circle id="k" class="cls-1" cx="6" cy="263.93" r="6"/><circle id="l" class="cls-1" cx="6" cy="285.83" r="6"/><path id="m" class="cls-1" d="M16.92,338.5h0V360a5.91,5.91,0,0,0,4,5.63,6,6,0,0,0,8-5.58s0-21.79,0-21.82h0a6,6,0,0,0-12,0h0Z"/><path id="n" class="cls-1" d="M0,302.38H0v57.8a5.91,5.91,0,0,0,4,5.63,6,6,0,0,0,8-5.58s0-58,0-58.08h0a6,6,0,0,0-12,0H0Z"/><circle id="o" class="cls-1" cx="6" cy="375.56" r="6"/><circle id="p" class="cls-1" cx="6" cy="400.71" r="6"/><circle id="q" class="cls-1" cx="6" cy="422.61" r="6"/><circle id="r" class="cls-1" cx="22.92" cy="422.96" r="6"/><circle id="s" class="cls-1" cx="6" cy="442.49" r="6"/><circle id="t" class="cls-1" cx="6" cy="464.12" r="6"/><circle id="u" class="cls-1" cx="6" cy="486.02" r="6"/><circle id="v" class="cls-1" cx="6" cy="511.16" r="6"/>


</g></g></svg>